<svg width="1920" height="1080" viewBox="0 0 1920 1080" xmlns="http://www.w3.org/2000/svg"><rect width="1920" height="1080" fill="#413b62"/><path d="M1920,1080C1602.1666666666667,1097.6666666666667,275.1666666666667,1123.1666666666667,0,1080C-275.1666666666667,1036.8333333333333,178.83333333333331,825,269,821C359.1666666666667,817,450,1060.6666666666667,541,1056C632,1051.3333333333333,723.3333333333334,821.3333333333334,815,793C906.6666666666666,764.6666666666666,998.8333333333334,884.8333333333334,1091,886C1183.1666666666667,887.1666666666666,1275.8333333333333,836.5,1368,800C1460.1666666666667,763.5,1554.1666666666667,638,1644,667C1733.8333333333333,696,1861,905.1666666666666,1907,974C1953,1042.8333333333333,2237.8333333333335,1062.3333333333333,1920,1080C1602.1666666666667,1097.6666666666667,275.1666666666667,1123.1666666666667,0,1080" fill="#df6688"/></svg>